<svg width="28" height="28" viewBox="0 0 28 28" fill="none" xmlns="http://www.w3.org/2000/svg">
<path d="M9.1875 25.375C9.88369 25.375 10.5514 25.0984 11.0437 24.6062C11.5359 24.1139 11.8125 23.4462 11.8125 22.75V17.5" stroke="black" stroke-linecap="round" stroke-linejoin="round"/>
<path d="M18.8125 25.375C18.1163 25.375 17.4486 25.0984 16.9563 24.6062C16.4641 24.1139 16.1875 23.4462 16.1875 22.75V17.5" stroke="black" stroke-linecap="round" stroke-linejoin="round"/>
<path d="M16.625 17.5H18.375C19.0712 17.5 19.7389 17.7766 20.2312 18.2688C20.7234 18.7611 21 19.4288 21 20.125V21C21 21.6962 21.2766 22.3639 21.7688 22.8562C22.2611 23.3484 22.9288 23.625 23.625 23.625" stroke="black" stroke-linecap="round" stroke-linejoin="round"/>
<path d="M11.375 17.5H9.625C8.92881 17.5 8.26113 17.7766 7.76884 18.2688C7.27656 18.7611 7 19.4288 7 20.125V21C7 21.6962 6.72344 22.3639 6.23116 22.8562C5.73887 23.3484 5.07119 23.625 4.375 23.625" stroke="black" stroke-linecap="round" stroke-linejoin="round"/>
<path d="M7.05597 8.38948C6.74999 7.5978 6.62543 6.74759 6.69146 5.90141C6.75749 5.05523 7.01243 4.23463 7.43751 3.5C8.39269 3.49946 9.3326 3.73967 10.1704 4.19846C11.0082 4.65724 11.7168 5.31978 12.2308 6.12487V6.125H15.7692V6.12487C16.2832 5.31978 16.9918 4.65724 17.8296 4.19845C18.6674 3.73967 19.6073 3.49946 20.5625 3.5C20.9876 4.23463 21.2425 5.05523 21.3086 5.90141C21.3746 6.74759 21.25 7.5978 20.944 8.38948V8.38948C21.5518 9.26629 21.8767 10.3081 21.875 11.375V12.25C21.875 13.6424 21.3219 14.9777 20.3373 15.9623C19.3528 16.9469 18.0174 17.5 16.625 17.5H11.375C9.98262 17.5 8.64726 16.9469 7.6627 15.9623C6.67813 14.9777 6.12501 13.6424 6.12501 12.25V11.375C6.12329 10.3081 6.44817 9.26629 7.05597 8.38947L7.05597 8.38948Z" stroke="black" stroke-linecap="round" stroke-linejoin="round"/>
</svg>
