<svg width="51" height="48" viewBox="0 0 51 48" fill="none" xmlns="http://www.w3.org/2000/svg">
<path d="M0.9 44L1.296 41.816H0.312V40.784H1.476L1.884 38.456H0.696V37.424H2.064L2.448 35.24H3.54L3.144 37.424H4.824L5.208 35.24H6.3L5.904 37.424H6.888V38.456H5.724L5.316 40.784H6.504V41.816H5.136L4.752 44H3.66L4.056 41.816H2.376L1.992 44H0.9ZM2.556 40.784H4.236L4.644 38.456H2.964L2.556 40.784ZM8.15531 44V35.24H13.6033V36.632H9.63131V38.972H13.2913V40.364H9.65531V44H8.15531ZM15.3506 44V35.24H20.7986V36.632H16.8266V38.972H20.4866V40.364H16.8506V44H15.3506ZM22.6419 44V35.24H27.8979V36.548H24.1179V38.828H27.4779V40.124H24.1179V42.692H27.8979V44H22.6419ZM29.8373 44V35.24H35.0933V36.548H31.3133V38.828H34.6733V40.124H31.3133V42.692H35.0933V44H29.8373ZM36.9006 44V35.24H39.5886C40.4366 35.24 41.1086 35.444 41.6046 35.852C42.1006 36.252 42.3486 36.8 42.3486 37.496C42.3486 38.016 42.1966 38.444 41.8926 38.78C41.5966 39.116 41.2126 39.324 40.7406 39.404C41.2686 39.468 41.7006 39.684 42.0366 40.052C42.3806 40.412 42.5526 40.896 42.5526 41.504C42.5526 42.264 42.2966 42.872 41.7846 43.328C41.2806 43.776 40.5926 44 39.7206 44H36.9006ZM38.3646 38.852H39.5646C39.9566 38.852 40.2686 38.748 40.5006 38.54C40.7326 38.324 40.8486 38.032 40.8486 37.664C40.8486 37.304 40.7326 37.02 40.5006 36.812C40.2766 36.596 39.9646 36.488 39.5646 36.488H38.3646V38.852ZM38.3646 42.752H39.6246C40.0646 42.752 40.4086 42.636 40.6566 42.404C40.9126 42.164 41.0406 41.84 41.0406 41.432C41.0406 41.024 40.9126 40.696 40.6566 40.448C40.4086 40.192 40.0646 40.064 39.6246 40.064H38.3646V42.752ZM46.7719 44.12C46.2039 44.12 45.7119 44.012 45.2959 43.796C44.8799 43.58 44.5559 43.276 44.3239 42.884C44.0999 42.492 43.9879 42.032 43.9879 41.504V37.736C43.9879 37.208 44.0999 36.748 44.3239 36.356C44.5559 35.964 44.8799 35.66 45.2959 35.444C45.7119 35.228 46.2039 35.12 46.7719 35.12C47.3399 35.12 47.8319 35.228 48.2479 35.444C48.6639 35.66 48.9839 35.964 49.2079 36.356C49.4399 36.748 49.5559 37.208 49.5559 37.736V41.504C49.5559 42.032 49.4399 42.492 49.2079 42.884C48.9839 43.276 48.6639 43.58 48.2479 43.796C47.8319 44.012 47.3399 44.12 46.7719 44.12ZM46.7719 42.824C47.1879 42.824 47.5199 42.704 47.7679 42.464C48.0159 42.224 48.1399 41.904 48.1399 41.504V37.736C48.1399 37.336 48.0159 37.016 47.7679 36.776C47.5279 36.536 47.1959 36.416 46.7719 36.416C46.3479 36.416 46.0119 36.536 45.7639 36.776C45.5239 37.016 45.4039 37.336 45.4039 37.736V41.504C45.4039 41.904 45.5279 42.224 45.7759 42.464C46.0239 42.704 46.3559 42.824 46.7719 42.824ZM46.7719 40.4C46.5319 40.4 46.3399 40.324 46.1959 40.172C46.0519 40.02 45.9799 39.824 45.9799 39.584C45.9799 39.344 46.0519 39.152 46.1959 39.008C46.3399 38.864 46.5319 38.792 46.7719 38.792C47.0119 38.792 47.2039 38.864 47.3479 39.008C47.4919 39.152 47.5639 39.344 47.5639 39.584C47.5639 39.824 47.4919 40.02 47.3479 40.172C47.2039 40.324 47.0119 40.4 46.7719 40.4Z" fill="black"/>
<path d="M20.5 29C21.2956 29 22.0587 28.6839 22.6213 28.1213C23.1839 27.5587 23.5 26.7956 23.5 26V20" stroke="black" stroke-width="2" stroke-linecap="round" stroke-linejoin="round"/>
<path d="M31.5 29C30.7044 29 29.9413 28.6839 29.3787 28.1213C28.8161 27.5587 28.5 26.7956 28.5 26V20" stroke="black" stroke-width="2" stroke-linecap="round" stroke-linejoin="round"/>
<path d="M29 20H31C31.7956 20 32.5587 20.3161 33.1213 20.8787C33.6839 21.4413 34 22.2044 34 23V24C34 24.7956 34.3161 25.5587 34.8787 26.1213C35.4413 26.6839 36.2044 27 37 27" stroke="black" stroke-width="2" stroke-linecap="round" stroke-linejoin="round"/>
<path d="M23 20H21C20.2044 20 19.4413 20.3161 18.8787 20.8787C18.3161 21.4413 18 22.2044 18 23V24C18 24.7956 17.6839 25.5587 17.1213 26.1213C16.5587 26.6839 15.7956 27 15 27" stroke="black" stroke-width="2" stroke-linecap="round" stroke-linejoin="round"/>
<path d="M18.064 9.58797C17.7143 8.6832 17.5719 7.71153 17.6474 6.74447C17.7228 5.77741 18.0142 4.83958 18.5 4C19.5916 3.99938 20.6658 4.27391 21.6233 4.79823C22.5808 5.32256 23.3907 6.07975 23.9781 6.99985V7H28.0219V6.99985C28.6094 6.07975 29.4192 5.32256 30.3767 4.79823C31.3342 4.27391 32.4084 3.99938 33.5 4C33.9858 4.83958 34.2772 5.77741 34.3526 6.74447C34.4281 7.71153 34.2857 8.6832 33.9361 9.58797V9.58797C34.6307 10.59 35.002 11.7807 35 13V14C35 15.5913 34.3679 17.1174 33.2426 18.2426C32.1174 19.3679 30.5913 20 29 20H23C21.4087 20 19.8826 19.3679 18.7574 18.2426C17.6321 17.1174 17 15.5913 17 14V13C16.9981 11.7807 17.3693 10.59 18.064 9.58797L18.064 9.58797Z" stroke="black" stroke-width="2" stroke-linecap="round" stroke-linejoin="round"/>
</svg>
